HIERARCHY
ROOT hip
{
  OFFSET 0 0 0
  CHANNELS 6 Xposition Yposition Zposition Zrotation Yrotation Xrotation
  JOINT abdomen
  {
    OFFSET 0 20.6881 -0.73152
    CHANNELS 3 Zrotation Xrotation Yrotation
    JOINT chest
    {
      OFFSET 0 11.7043 -0.48768
      CHANNELS 3 Zrotation Xrotation Yrotation
      JOINT neck
      {
        OFFSET 0 22.1894 -2.19456
        CHANNELS 3 Zrotation Xrotation Yrotation
        JOINT head
        {
          OFFSET -0.24384 7.07133 1.2192
          CHANNELS 3 Zrotation Xrotation Yrotation
          JOINT leftEye
          {
            OFFSET 4.14528 8.04674 8.04672
            CHANNELS 3 Zrotation Xrotation Yrotation
            End Site
            {
              OFFSET 1 0 0
            }
          }
          JOINT rightEye
          {
            OFFSET -3.6576 8.04674 8.04672
            CHANNELS 3 Zrotation Xrotation Yrotation
            End Site
            {
              OFFSET 1 0 0
            }
          }
        }
      }
      JOINT rCollar
      {
        OFFSET -2.68224 19.2634 -4.8768
        CHANNELS 3 Zrotation Xrotation Yrotation
        JOINT rShldr
        {
          OFFSET -8.77824 -1.95073 1.46304
          CHANNELS 3 Zrotation Xrotation Yrotation
          JOINT rForeArm
          {
            OFFSET -28.1742 -1.7115 0.48768
            CHANNELS 3 Zrotation Xrotation Yrotation
            JOINT rHand
            {
              OFFSET -22.5879 0.773209 7.07136
              CHANNELS 3 Zrotation Xrotation Yrotation
              JOINT rThumb1
              {
                OFFSET -1.2192 -0.487915 3.41376
                CHANNELS 3 Zrotation Xrotation Yrotation
                JOINT rThumb2
                {
                  OFFSET -3.37035 -0.52449 3.41376
                  CHANNELS 3 Zrotation Xrotation Yrotation
                  End Site
                  {
                    OFFSET -1.78271 -1.18214 1.43049
                  }
                }
              }
              JOINT rIndex1
              {
                OFFSET -7.75947 0.938293 5.60832
                CHANNELS 3 Zrotation Xrotation Yrotation
                JOINT rIndex2
                {
                  OFFSET -2.54057 -0.884171 1.56538
                  CHANNELS 3 Zrotation Xrotation Yrotation
                  End Site
                  {
                    OFFSET -1.62519 -0.234802 1.16502
                  }
                }
              }
              JOINT rMid1
              {
                OFFSET -8.24714 1.18213 3.41376
                CHANNELS 3 Zrotation Xrotation Yrotation
                JOINT rMid2
                {
                  OFFSET -3.10165 -0.590103 1.0647
                  CHANNELS 3 Zrotation Xrotation Yrotation
                  End Site
                  {
                    OFFSET -2.48547 -0.328903 0.83742
                  }
                }
              }
              JOINT rRing1
              {
                OFFSET -8.82822 0.546677 1.51678
                CHANNELS 3 Zrotation Xrotation Yrotation
                JOINT rRing2
                {
                  OFFSET -2.60934 -0.819778 -0.0198488
                  CHANNELS 3 Zrotation Xrotation Yrotation
                  End Site
                  {
                    OFFSET -2.33842 -0.294052 0.168128
                  }
                }
              }
              JOINT rPinky1
              {
                OFFSET -8.27202 -0.0477905 -0.4584
                CHANNELS 3 Zrotation Xrotation Yrotation
                JOINT rPinky2
                {
                  OFFSET -1.82734 -0.647385 -0.700984
                  CHANNELS 3 Zrotation Xrotation Yrotation
                  End Site
                  {
                    OFFSET -1.69225 -0.51767 -0.607171
                  }
                }
              }
            }
          }
        }
      }
      JOINT lCollar
      {
        OFFSET 2.68224 19.2634 -4.8768
        CHANNELS 3 Zrotation Xrotation Yrotation
        JOINT lShldr
        {
          OFFSET 8.77824 -1.95073 1.46304
          CHANNELS 3 Zrotation Xrotation Yrotation
          JOINT lForeArm
          {
            OFFSET 28.1742 -1.7115 0.48768
            CHANNELS 3 Zrotation Xrotation Yrotation
            JOINT lHand
            {
              OFFSET 22.5879 0.773209 7.07136
              CHANNELS 3 Zrotation Xrotation Yrotation
              JOINT lThumb1
              {
                OFFSET 1.2192 -0.487915 3.41376
                CHANNELS 3 Zrotation Xrotation Yrotation
                JOINT lThumb2
                {
                  OFFSET 3.37035 -0.52449 3.41376
                  CHANNELS 3 Zrotation Xrotation Yrotation
                  End Site
                  {
                    OFFSET 1.78271 -1.18214 1.43049
                  }
                }
              }
              JOINT lIndex1
              {
                OFFSET 7.75947 0.938293 5.60832
                CHANNELS 3 Zrotation Xrotation Yrotation
                JOINT lIndex2
                {
                  OFFSET 2.54057 -0.884171 1.56538
                  CHANNELS 3 Zrotation Xrotation Yrotation
                  End Site
                  {
                    OFFSET 1.62519 -0.234802 1.16502
                  }
                }
              }
              JOINT lMid1
              {
                OFFSET 8.24714 1.18213 3.41376
                CHANNELS 3 Zrotation Xrotation Yrotation
                JOINT lMid2
                {
                  OFFSET 3.10165 -0.590103 1.0647
                  CHANNELS 3 Zrotation Xrotation Yrotation
                  End Site
                  {
                    OFFSET 2.48547 -0.328903 0.83742
                  }
                }
              }
              JOINT lRing1
              {
                OFFSET 8.82822 0.546677 1.51678
                CHANNELS 3 Zrotation Xrotation Yrotation
                JOINT lRing2
                {
                  OFFSET 2.60934 -0.819778 -0.0198488
                  CHANNELS 3 Zrotation Xrotation Yrotation
                  End Site
                  {
                    OFFSET 2.33842 -0.294052 0.168128
                  }
                }
              }
              JOINT lPinky1
              {
                OFFSET 8.27202 -0.0477905 -0.4584
                CHANNELS 3 Zrotation Xrotation Yrotation
                JOINT lPinky2
                {
                  OFFSET 1.82734 -0.647385 -0.700984
                  CHANNELS 3 Zrotation Xrotation Yrotation
                  End Site
                  {
                    OFFSET 1.69225 -0.51767 -0.607171
                  }
                }
              }
            }
          }
        }
      }
    }
  }
  JOINT rButtock
  {
    OFFSET -8.77824 4.35084 1.2192
    CHANNELS 3 Zrotation Xrotation Yrotation
    JOINT rThigh
    {
      OFFSET 0 -1.70687 -2.19456
      CHANNELS 3 Zrotation Xrotation Yrotation
      JOINT rShin
      {
        OFFSET 0 -36.8199 0.73152
        CHANNELS 3 Zrotation Xrotation Yrotation
        JOINT rFoot
        {
          OFFSET 0.73152 -45.1104 -5.12064
          CHANNELS 3 Zrotation Xrotation Yrotation
          End Site
          {
            OFFSET -1.1221 -3.69964 12.103
          }
        }
      }
    }
  }
  JOINT lButtock
  {
    OFFSET 8.77824 4.35084 1.2192
    CHANNELS 3 Zrotation Xrotation Yrotation
    JOINT lThigh
    {
      OFFSET 0 -1.70687 -2.19456
      CHANNELS 3 Zrotation Xrotation Yrotation
      JOINT lShin
      {
        OFFSET 0 -36.8199 0.73152
        CHANNELS 3 Zrotation Xrotation Yrotation
        JOINT lFoot
        {
          OFFSET -0.73152 -45.1104 -5.12064
          CHANNELS 3 Zrotation Xrotation Yrotation
          End Site
          {
            OFFSET 1.1221 -3.69964 12.103
          }
        }
      }
    }
  }
}
MOTION
Frames:	5
Frame Time:	0.03333
32.263799999999996 59.7636 -38.2265 -153.032257 61.571807 -154.602555 14.375158 22.214108 -180.0 -60.526295 47.31391 -118.802496 128.342701 -12.530765 -62.970633 -48.870285 67.102685 -120.590902 2.453381 -1.018487 -45.085063 -9.026596 3.986073 -47.581158 -44.1609 -63.052449 -18.835784 79.029393 35.261638 -129.418804 178.268916 -7.114651 9.231588 -172.391601 21.018088 102.015896 -87.451968 29.794489 40.922431 -124.709314 -40.260244 83.47338 -140.638163 41.744417 177.202555 -65.977902 42.889985 61.309308 -159.972688 35.241317 -160.56428 50.464659 64.791207 -58.260841 -105.890764 -10.127192 -132.733594 -109.026931 -11.664372 -151.716764 -0.273286 -25.184617 -7.988696 23.395124 12.726555 -21.136897 -99.25946 39.157693 45.663379 112.194315 44.872073 -125.201039 -175.073665 -49.031597 160.741685 62.535845 64.201551 -51.155727 12.249164 15.192651 -47.330542 -81.780176 -53.761002 0.788145 3.669753 30.467283 -99.180761 -173.45052 58.29725 177.571381 -48.673145 41.41578 -48.633288 -6.917091 66.530437 82.007191 -79.752929 11.581701 -35.078089 144.507425 -66.459879 119.648161 -74.937845 4.25309 -54.299946 -144.323131 -22.860396 54.518733 -10.932663 5.962807 15.447113 38.051783 -19.497344 66.906482 66.373866 19.657852 -32.895638 96.129194 82.894752 134.090058 78.063297 14.334722 27.411871 -116.692172 -28.470187 180.0 -80.247178 -43.346775 -168.430274 176.472482 21.809863 45.065077
32.702999999999996 56.608000000000004 -38.649699999999996 -153.094546 61.164674 -154.027904 12.07775 23.265384 70.743687 -58.279745 -52.668042 -68.346569 149.782631 -7.272775 118.524443 38.223469 -50.14292 41.466597 -1.589282 0.594567 -41.020634 -9.635367 4.350002 -48.513985 -44.647206 34.901661 4.190901 99.117917 13.443993 -35.745994 -4.851152 -24.974677 130.537752 2.136641 -20.189897 -40.621773 -2.281093 -7.906038 5.768339 -10.443783 26.793175 8.412002 9.544558 -21.709967 -75.101638 -163.362112 -3.442167 127.807119 74.914959 49.158338 -71.438701 147.40317 -63.730285 160.515696 -64.82628 -30.199196 -104.480683 62.00894 35.608542 5.248483 -136.55344 47.086933 -156.679602 -3.917266 -52.279968 3.601743 -96.313716 44.38122 42.888176 -99.321643 -62.272479 -77.090281 11.362465 75.446078 -42.553699 42.376052 60.224746 -35.133184 -164.590991 -28.120547 -45.073488 71.993843 22.036566 0.016292 142.683981 -75.965225 -57.24214 -111.614475 -29.428989 -28.089869 114.210968 -58.810285 -111.42664 113.906125 -44.648043 -125.567303 68.33803 -7.336317 -154.668319 130.519661 -19.051755 177.704911 -49.951565 33.053619 -71.042242 149.995734 41.801463 53.2954 -68.574839 11.979752 -26.335117 100.490681 22.649587 130.933714 69.887258 -27.796708 -4.116702 94.805727 28.894582 138.247213 -22.802283 24.839172 -36.683838 78.156627 -60.10521 -180.0 81.188208 -31.817912 154.817662 145.020593 -36.212923 173.516063
33.128 53.6493 -38.8272 -152.06337 60.726442 -152.607623 14.844787 18.06172 154.509799 -62.529728 25.034886 -106.849405 128.637376 -4.767755 -93.681908 -68.235041 37.800025 -87.646516 -9.682485 3.154464 -36.018395 -11.618792 5.38668 -49.628685 169.089605 -45.092621 179.876079 -90.269565 11.855229 26.641454 82.689293 -66.424941 -98.835539 -153.274326 53.637099 87.15657 87.026264 -44.917875 43.653473 -151.50368 13.346452 118.33685 45.528112 40.329248 -51.878875 -143.818507 -6.852881 127.026578 65.182585 42.950777 -67.169595 131.31932 -39.767914 141.414041 -150.623922 42.936507 -143.835985 114.180933 37.066305 -117.504147 11.230748 77.842915 44.802311 -139.9487 59.575718 -156.52159 138.188093 63.255535 144.919826 92.866361 59.828657 -86.721801 -2.349385 -2.334996 62.446856 -125.061116 -68.348751 -119.839144 -0.93883 13.8281 -32.459197 -11.547288 13.284087 -23.283387 -162.400001 -69.051294 -14.139014 64.218226 19.662819 -71.215785 -46.097159 41.540803 -41.827504 51.688878 40.818692 20.665567 86.432527 -23.285704 -161.741034 14.601244 89.186908 -22.687998 -100.624661 -61.596879 -31.716218 -154.320043 1.069828 172.92833 -10.425515 5.409409 14.613469 40.500737 -17.033789 -108.930666 -73.244658 -16.414206 -142.008959 155.293852 -29.480327 -174.560942 -60.151593 51.54381 -45.441317 116.296539 -30.020472 -180.0 78.490573 -37.804362 168.272067 93.726496 -32.454357 131.940833
33.481100000000005 51.5543 -38.866299999999995 -150.660504 60.549835 -151.095194 15.97964 16.694801 135.091166 -63.81859 6.784491 -96.790605 123.070775 -3.177483 -78.040598 -63.739413 55.030962 -90.250196 -16.199715 4.359342 -29.944897 -12.521689 5.882601 -50.19049 164.805003 -14.613129 173.447047 74.328215 -14.216578 120.416978 -73.465585 -68.001323 61.524024 16.407345 -45.189027 -35.860383 80.127557 -45.921331 39.993909 -93.395182 -71.828115 -129.446588 42.802015 47.116992 -43.783311 57.707584 -66.22466 -8.041211 -38.676004 -37.093792 -96.92281 62.036665 -4.698829 19.631857 -107.518366 -13.22454 -135.549578 -105.950378 7.157042 -148.89111 19.273734 -17.858329 2.322541 -103.560727 -37.979072 -91.530223 -99.946376 57.096451 43.691699 -121.15833 -58.52732 -100.346035 -7.139966 68.523098 -25.760786 41.202756 68.363275 -38.393433 166.973844 -22.801222 -66.133075 58.739172 -49.035531 37.749256 -50.82658 40.231996 -37.25268 20.742004 -16.284911 21.004319 72.267981 -5.257905 -130.642531 55.800062 -56.172828 123.08312 41.843673 49.705718 -114.815617 131.413686 48.620095 -124.848381 -76.537106 -81.959304 2.557821 -6.385152 -54.23404 -43.480512 -105.719426 37.462548 -45.121072 160.878634 53.081073 15.263905 51.686038 52.60728 45.839066 -23.804713 54.53122 -157.944831 -25.083995 25.121876 -39.141125 83.216524 -57.055043 173.41518 83.91908 -28.045376 135.593797 -122.921336 0.426385 -136.645258
33.7331 51.353899999999996 -38.8638 -149.542311 60.436434 -149.974335 19.560512 19.485512 -5.96501 55.944933 -42.271652 68.638637 137.617998 -2.533777 89.491255 55.621707 -35.660064 78.49683 -19.847494 4.721179 -26.516717 -13.399402 6.035602 -48.340939 167.398191 -40.675606 -175.925606 -50.227268 -44.345907 43.067852 5.948973 23.160383 -165.386981 -179.762163 13.702495 101.5358 -175.620002 -0.932708 86.371713 53.175528 -64.895628 67.33409 -41.655029 -57.842062 -117.797925 4.248131 -37.398015 -9.788238 -143.105529 14.787384 -158.248331 -158.293452 7.566655 -162.031274 -162.011994 56.801874 -143.215537 -56.739619 -20.431162 -51.958799 -114.495434 -6.225957 -146.601232 -3.855074 -49.452481 -0.574453 -71.888263 21.230923 34.416416 117.617535 39.721808 -143.503054 -10.605272 68.866389 69.395542 -137.513831 -57.388022 -132.563023 68.409389 22.594357 -54.486417 -40.881313 -25.740096 -58.189166 100.621213 -69.01374 -109.168744 9.115432 53.305455 -36.670978 -41.456499 43.74242 -43.117408 29.087481 81.513192 30.825227 -52.483587 -10.467435 -13.486875 117.421455 -43.145218 -177.39848 -85.17237 -18.282817 -26.727374 75.074632 -58.353611 35.207973 67.040983 53.758149 46.697295 -61.29627 0.735502 -88.361997 -40.138457 47.016946 72.354023 165.928948 40.099151 86.311216 47.169029 3.039991 10.496246 -86.672649 -51.624309 -86.65769 -72.842456 46.063958 -8.560377 -148.908395 -1.735794 -112.537888
